<?xml version="1.0" encoding="utf-8"?>
<!-- Generator: Adobe Illustrator 25.0.0, SVG Export Plug-In . SVG Version: 6.00 Build 0)  -->
<svg version="1.1" id="Layer_1" xmlns="http://www.w3.org/2000/svg" xmlns:xlink="http://www.w3.org/1999/xlink" x="0px" y="0px"
	 viewBox="0 0 900 900" style="enable-background:new 0 0 900 900;" xml:space="preserve">
<style type="text/css">
	.st0{opacity:0.5;}
	.st1{fill:#7389FF;}
	.st2{fill:#E70063;}
</style>
<g>
	<g>
		<g class="st0">
			<circle class="st1" cx="598.9" cy="450" r="287.3"/>
			<path d="M598.9,167.1c156,0,282.9,126.8,282.9,282.9S754.9,732.9,598.9,732.9S316,606,316,450S442.9,167.1,598.9,167.1
				 M598.9,158.2c-161.1,0-291.8,130.7-291.8,291.8s130.7,291.8,291.8,291.8S890.7,611.1,890.7,450S760,158.2,598.9,158.2
				L598.9,158.2z"/>
		</g>
	</g>
	<g>
		<g class="st0">
			<circle class="st2" cx="301.1" cy="450" r="287.3"/>
			<path d="M301.1,167.1C457.1,167.1,584,294,584,450S457.1,732.9,301.1,732.9S18.2,606,18.2,450S145.1,167.1,301.1,167.1
				 M301.1,158.2C140,158.2,9.3,288.9,9.3,450S140,741.8,301.1,741.8S592.9,611.1,592.9,450S462.2,158.2,301.1,158.2L301.1,158.2z"
				/>
		</g>
	</g>
	<g>
		<path d="M598.9,167.1c156,0,282.9,126.8,282.9,282.9S754.9,732.9,598.9,732.9S316,606,316,450S442.9,167.1,598.9,167.1
			 M598.9,158.2c-161.1,0-291.8,130.7-291.8,291.8s130.7,291.8,291.8,291.8S890.7,611.1,890.7,450S760,158.2,598.9,158.2
			L598.9,158.2z"/>
	</g>
	<g>
		<path d="M301.1,167.1C457.1,167.1,584,294,584,450S457.1,732.9,301.1,732.9S18.2,606,18.2,450S145.1,167.1,301.1,167.1
			 M301.1,158.2C140,158.2,9.3,288.9,9.3,450S140,741.8,301.1,741.8S592.9,611.1,592.9,450S462.2,158.2,301.1,158.2L301.1,158.2z"/>
	</g>
</g>
</svg>
