<?xml version="1.0" encoding="utf-8"?>
<!-- Generator: Adobe Illustrator 25.0.0, SVG Export Plug-In . SVG Version: 6.00 Build 0)  -->
<svg version="1.1" id="Layer_1" xmlns="http://www.w3.org/2000/svg" xmlns:xlink="http://www.w3.org/1999/xlink" x="0px" y="0px"
	 viewBox="0 0 300 300" style="enable-background:new 0 0 300 300;" xml:space="preserve">
<style type="text/css">
	.st0{opacity:0.5;}
	.st1{fill:#7389FF;}
	.st2{fill:#E70063;}
</style>
<g>
	<g>
		<g class="st0">
			<circle class="st1" cx="200" cy="150" r="96.5"/>
			<path d="M200,55c52.4,0,95,42.6,95,95s-42.6,95-95,95s-95-42.6-95-95S147.6,55,200,55 M200,52c-54.1,0-98,43.9-98,98
				s43.9,98,98,98s98-43.9,98-98S254.1,52,200,52L200,52z"/>
		</g>
	</g>
	<g>
		<g class="st0">
			<circle class="st2" cx="100" cy="150" r="96.5"/>
			<path d="M100,55c52.4,0,95,42.6,95,95s-42.6,95-95,95S5,202.4,5,150S47.6,55,100,55 M100,52C45.9,52,2,95.9,2,150s43.9,98,98,98
				s98-43.9,98-98S154.1,52,100,52L100,52z"/>
		</g>
	</g>
	<g>
		<path d="M200,55c52.4,0,95,42.6,95,95s-42.6,95-95,95s-95-42.6-95-95S147.6,55,200,55 M200,52c-54.1,0-98,43.9-98,98
			s43.9,98,98,98s98-43.9,98-98S254.1,52,200,52L200,52z"/>
	</g>
	<g>
		<path d="M100,55c52.4,0,95,42.6,95,95s-42.6,95-95,95S5,202.4,5,150S47.6,55,100,55 M100,52C45.9,52,2,95.9,2,150s43.9,98,98,98
			s98-43.9,98-98S154.1,52,100,52L100,52z"/>
	</g>
</g>
</svg>
